<?xml version="1.0" encoding="UTF-8"?>
<svg width="250px" height="250px" viewBox="0 0 250 250" version="1.1" xmlns="http://www.w3.org/2000/svg" xmlns:xlink="http://www.w3.org/1999/xlink">
    <!-- Generator: Sketch 49.2 (51160) - http://www.bohemiancoding.com/sketch -->
    <title>11</title>
    <desc>Created with Sketch.</desc>
    <defs></defs>
    <g id="11" stroke="none" stroke-width="1" fill="none" fill-rule="evenodd">
        <path d="M-60.90287,125 C-83.1908385,125 -91.2729944,127.32064 -99.4211426,131.678318 C-107.569291,136.035995 -113.964005,142.430709 -118.321682,150.578857 C-122.67936,158.727006 -125,166.809162 -125,189.09713 L-125,310.90287 C-125,333.190838 -122.67936,341.272994 -118.321682,349.421143 C-113.964005,357.569291 -107.569291,363.964005 -99.4211426,368.321682 C-91.2729944,372.67936 -83.1908385,375 -60.90287,375 L60.90287,375 C83.1908385,375 91.2729944,372.67936 99.4211426,368.321682 C107.569291,363.964005 113.964005,357.569291 118.321682,349.421143 C122.67936,341.272994 125,333.190838 125,310.90287 L125,189.09713 C125,166.809162 122.67936,158.727006 118.321682,150.578857 C113.964005,142.430709 107.569291,136.035995 99.4211426,131.678318 C91.2729944,127.32064 83.1908385,125 60.90287,125 L-60.90287,125 Z M-60.90287,-80 L60.90287,-80 C83.7045852,-80 103.552023,-78.5894438 124.333661,-74.5763244 C150.755884,-69.4739577 174.056938,-60.8815628 196.098909,-49.093388 C239.972094,-25.6297518 275.629752,10.0279062 299.093388,53.9010913 C310.881563,75.9430618 319.473958,99.2441156 324.576324,125.666339 C328.589444,146.447977 330,166.295415 330,189.09713 L330,310.90287 C330,333.704585 328.589444,353.552023 324.576324,374.333661 C319.473958,400.755884 310.881563,424.056938 299.093388,446.098909 C275.629752,489.972094 239.972094,525.629752 196.098909,549.093388 C174.056938,560.881563 150.755884,569.473958 124.333661,574.576324 C103.552023,578.589444 83.7045852,580 60.90287,580 L-60.90287,580 C-83.7045852,580 -103.552023,578.589444 -124.333661,574.576324 C-150.755884,569.473958 -174.056938,560.881563 -196.098909,549.093388 C-239.972094,525.629752 -275.629752,489.972094 -299.093388,446.098909 C-310.881563,424.056938 -319.473958,400.755884 -324.576324,374.333661 C-328.589444,353.552023 -330,333.704585 -330,310.90287 L-330,189.09713 C-330,166.295415 -328.589444,146.447977 -324.576324,125.666339 C-319.473958,99.2441156 -310.881563,75.9430618 -299.093388,53.9010913 C-275.629752,10.0279062 -239.972094,-25.6297518 -196.098909,-49.093388 C-174.056938,-60.8815628 -150.755884,-69.4739577 -124.333661,-74.5763244 C-103.552023,-78.5894438 -83.7045852,-80 -60.90287,-80 Z" id="Rectangle" fill="#FFFFFF" fill-rule="nonzero"></path>
    </g>
</svg>