<?xml version="1.0" encoding="UTF-8"?>
<svg width="250px" height="250px" viewBox="0 0 250 250" version="1.1" xmlns="http://www.w3.org/2000/svg" xmlns:xlink="http://www.w3.org/1999/xlink">
    <!-- Generator: Sketch 49.2 (51160) - http://www.bohemiancoding.com/sketch -->
    <title>13</title>
    <desc>Created with Sketch.</desc>
    <defs></defs>
    <g id="13" stroke="none" stroke-width="1" fill="none" fill-rule="evenodd">
        <path d="M189.09713,125 C166.809162,125 158.727006,127.32064 150.578857,131.678318 C142.430709,136.035995 136.035995,142.430709 131.678318,150.578857 C127.32064,158.727006 125,166.809162 125,189.09713 L125,310.90287 C125,333.190838 127.32064,341.272994 131.678318,349.421143 C136.035995,357.569291 142.430709,363.964005 150.578857,368.321682 C158.727006,372.67936 166.809162,375 189.09713,375 L310.90287,375 C333.190838,375 341.272994,372.67936 349.421143,368.321682 C357.569291,363.964005 363.964005,357.569291 368.321682,349.421143 C372.67936,341.272994 375,333.190838 375,310.90287 L375,189.09713 C375,166.809162 372.67936,158.727006 368.321682,150.578857 C363.964005,142.430709 357.569291,136.035995 349.421143,131.678318 C341.272994,127.32064 333.190838,125 310.90287,125 L189.09713,125 Z M189.09713,-80 L310.90287,-80 C333.704585,-80 353.552023,-78.5894438 374.333661,-74.5763244 C400.755884,-69.4739577 424.056938,-60.8815628 446.098909,-49.093388 C489.972094,-25.6297518 525.629752,10.0279062 549.093388,53.9010913 C560.881563,75.9430618 569.473958,99.2441156 574.576324,125.666339 C578.589444,146.447977 580,166.295415 580,189.09713 L580,310.90287 C580,333.704585 578.589444,353.552023 574.576324,374.333661 C569.473958,400.755884 560.881563,424.056938 549.093388,446.098909 C525.629752,489.972094 489.972094,525.629752 446.098909,549.093388 C424.056938,560.881563 400.755884,569.473958 374.333661,574.576324 C353.552023,578.589444 333.704585,580 310.90287,580 L189.09713,580 C166.295415,580 146.447977,578.589444 125.666339,574.576324 C99.2441156,569.473958 75.9430618,560.881563 53.9010913,549.093388 C10.0279062,525.629752 -25.6297518,489.972094 -49.093388,446.098909 C-60.8815628,424.056938 -69.4739577,400.755884 -74.5763244,374.333661 C-78.5894438,353.552023 -80,333.704585 -80,310.90287 L-80,189.09713 C-80,166.295415 -78.5894438,146.447977 -74.5763244,125.666339 C-69.4739577,99.2441156 -60.8815628,75.9430618 -49.093388,53.9010913 C-25.6297518,10.0279062 10.0279062,-25.6297518 53.9010913,-49.093388 C75.9430618,-60.8815628 99.2441156,-69.4739577 125.666339,-74.5763244 C146.447977,-78.5894438 166.295415,-80 189.09713,-80 Z" id="Rectangle" fill="#FFFFFF" fill-rule="nonzero"></path>
    </g>
</svg>