<?xml version="1.0" encoding="UTF-8"?>
<svg width="250px" height="250px" viewBox="0 0 250 250" version="1.1" xmlns="http://www.w3.org/2000/svg" xmlns:xlink="http://www.w3.org/1999/xlink">
    <!-- Generator: Sketch 49.2 (51160) - http://www.bohemiancoding.com/sketch -->
    <title>14</title>
    <desc>Created with Sketch.</desc>
    <defs></defs>
    <g id="14" stroke="none" stroke-width="1" fill="none" fill-rule="evenodd">
        <path d="M189.09713,-125 C166.809162,-125 158.727006,-122.67936 150.578857,-118.321682 C142.430709,-113.964005 136.035995,-107.569291 131.678318,-99.4211426 C127.32064,-91.2729944 125,-83.1908385 125,-60.90287 L125,60.90287 C125,83.1908385 127.32064,91.2729944 131.678318,99.4211426 C136.035995,107.569291 142.430709,113.964005 150.578857,118.321682 C158.727006,122.67936 166.809162,125 189.09713,125 L310.90287,125 C333.190838,125 341.272994,122.67936 349.421143,118.321682 C357.569291,113.964005 363.964005,107.569291 368.321682,99.4211426 C372.67936,91.2729944 375,83.1908385 375,60.90287 L375,-60.90287 C375,-83.1908385 372.67936,-91.2729944 368.321682,-99.4211426 C363.964005,-107.569291 357.569291,-113.964005 349.421143,-118.321682 C341.272994,-122.67936 333.190838,-125 310.90287,-125 L189.09713,-125 Z M189.09713,-330 L310.90287,-330 C333.704585,-330 353.552023,-328.589444 374.333661,-324.576324 C400.755884,-319.473958 424.056938,-310.881563 446.098909,-299.093388 C489.972094,-275.629752 525.629752,-239.972094 549.093388,-196.098909 C560.881563,-174.056938 569.473958,-150.755884 574.576324,-124.333661 C578.589444,-103.552023 580,-83.7045852 580,-60.90287 L580,60.90287 C580,83.7045852 578.589444,103.552023 574.576324,124.333661 C569.473958,150.755884 560.881563,174.056938 549.093388,196.098909 C525.629752,239.972094 489.972094,275.629752 446.098909,299.093388 C424.056938,310.881563 400.755884,319.473958 374.333661,324.576324 C353.552023,328.589444 333.704585,330 310.90287,330 L189.09713,330 C166.295415,330 146.447977,328.589444 125.666339,324.576324 C99.2441156,319.473958 75.9430618,310.881563 53.9010913,299.093388 C10.0279062,275.629752 -25.6297518,239.972094 -49.093388,196.098909 C-60.8815628,174.056938 -69.4739577,150.755884 -74.5763244,124.333661 C-78.5894438,103.552023 -80,83.7045852 -80,60.90287 L-80,-60.90287 C-80,-83.7045852 -78.5894438,-103.552023 -74.5763244,-124.333661 C-69.4739577,-150.755884 -60.8815628,-174.056938 -49.093388,-196.098909 C-25.6297518,-239.972094 10.0279062,-275.629752 53.9010913,-299.093388 C75.9430618,-310.881563 99.2441156,-319.473958 125.666339,-324.576324 C146.447977,-328.589444 166.295415,-330 189.09713,-330 Z" id="Rectangle" fill="#FFFFFF" fill-rule="nonzero"></path>
    </g>
</svg>