<?xml version="1.0" encoding="UTF-8"?>
<svg width="250px" height="250px" viewBox="0 0 250 250" version="1.1" xmlns="http://www.w3.org/2000/svg" xmlns:xlink="http://www.w3.org/1999/xlink">
    <!-- Generator: Sketch 49.2 (51160) - http://www.bohemiancoding.com/sketch -->
    <title>7</title>
    <desc>Created with Sketch.</desc>
    <defs></defs>
    <g id="7" stroke="none" stroke-width="1" fill="none" fill-rule="evenodd">
        <path d="M-60.90287,-125 C-83.1908385,-125 -91.2729944,-122.67936 -99.4211426,-118.321682 C-107.569291,-113.964005 -113.964005,-107.569291 -118.321682,-99.4211426 C-122.67936,-91.2729944 -125,-83.1908385 -125,-60.90287 L-125,60.90287 C-125,83.1908385 -122.67936,91.2729944 -118.321682,99.4211426 C-113.964005,107.569291 -107.569291,113.964005 -99.4211426,118.321682 C-91.2729944,122.67936 -83.1908385,125 -60.90287,125 L60.90287,125 C83.1908385,125 91.2729944,122.67936 99.4211426,118.321682 C107.569291,113.964005 113.964005,107.569291 118.321682,99.4211426 C122.67936,91.2729944 125,83.1908385 125,60.90287 L125,-60.90287 C125,-83.1908385 122.67936,-91.2729944 118.321682,-99.4211426 C113.964005,-107.569291 107.569291,-113.964005 99.4211426,-118.321682 C91.2729944,-122.67936 83.1908385,-125 60.90287,-125 L-60.90287,-125 Z M-60.90287,-330 L60.90287,-330 C83.7045852,-330 103.552023,-328.589444 124.333661,-324.576324 C150.755884,-319.473958 174.056938,-310.881563 196.098909,-299.093388 C239.972094,-275.629752 275.629752,-239.972094 299.093388,-196.098909 C310.881563,-174.056938 319.473958,-150.755884 324.576324,-124.333661 C328.589444,-103.552023 330,-83.7045852 330,-60.90287 L330,60.90287 C330,83.7045852 328.589444,103.552023 324.576324,124.333661 C319.473958,150.755884 310.881563,174.056938 299.093388,196.098909 C275.629752,239.972094 239.972094,275.629752 196.098909,299.093388 C174.056938,310.881563 150.755884,319.473958 124.333661,324.576324 C103.552023,328.589444 83.7045852,330 60.90287,330 L-60.90287,330 C-83.7045852,330 -103.552023,328.589444 -124.333661,324.576324 C-150.755884,319.473958 -174.056938,310.881563 -196.098909,299.093388 C-239.972094,275.629752 -275.629752,239.972094 -299.093388,196.098909 C-310.881563,174.056938 -319.473958,150.755884 -324.576324,124.333661 C-328.589444,103.552023 -330,83.7045852 -330,60.90287 L-330,-60.90287 C-330,-83.7045852 -328.589444,-103.552023 -324.576324,-124.333661 C-319.473958,-150.755884 -310.881563,-174.056938 -299.093388,-196.098909 C-275.629752,-239.972094 -239.972094,-275.629752 -196.098909,-299.093388 C-174.056938,-310.881563 -150.755884,-319.473958 -124.333661,-324.576324 C-103.552023,-328.589444 -83.7045852,-330 -60.90287,-330 Z" id="Rectangle" fill="#FFFFFF" fill-rule="nonzero"></path>
    </g>
</svg>